<svg xmlns="http://www.w3.org/2000/svg" width="1em" height="1em" viewBox="0 0 15 15"><path fill="currentColor" d="M7.5 5a1.5 1.5 0 1 0 0 3a1.5 1.5 0 0 0 0-3"/><path fill="currentColor" fill-rule="evenodd" d="M9 2H8V0H7v2H6a6 6 0 0 0 0 12h3c.13 0 .26-.004.389-.013l3.99.998a.5.5 0 0 0 .606-.606l-.577-2.309A6 6 0 0 0 9 2M5 6.5a2.5 2.5 0 1 1 5 0a2.5 2.5 0 0 1-5 0M7.5 12a4.483 4.483 0 0 1-2.813-.987l.626-.78c.599.48 1.359.767 2.187.767c.828 0 1.588-.287 2.187-.767l.626.78A4.483 4.483 0 0 1 7.5 12" clip-rule="evenodd"/></svg>