<?xml version="1.0" standalone="no"?>
<!DOCTYPE svg PUBLIC "-//W3C//DTD SVG 20010904//EN"
 "http://www.w3.org/TR/2001/REC-SVG-20010904/DTD/svg10.dtd">
<svg version="1.0" xmlns="http://www.w3.org/2000/svg"
 width="512.000000pt" height="512.000000pt" viewBox="0 0 512.000000 512.000000"
 preserveAspectRatio="xMidYMid meet">

<g transform="translate(0.000000,512.000000) scale(0.100000,-0.100000)"
fill="#000000" stroke="none">
<path d="M1958 4965 c-324 -87 -583 -162 -602 -175 -63 -39 -92 -133 -62 -203
29 -67 63 -87 243 -136 l168 -47 3 -281 2 -280 -40 -6 c-93 -12 -120 -35 -329
-286 -108 -130 -205 -247 -214 -261 -11 -15 -17 -44 -17 -77 l0 -52 -322 -3
-323 -3 -53 -29 c-28 -16 -63 -43 -76 -61 -13 -17 -74 -131 -135 -253 l-111
-222 0 -1003 0 -1003 -30 -29 c-51 -49 -60 -81 -60 -212 0 -103 3 -125 23
-163 12 -25 37 -55 56 -67 l34 -23 592 0 591 0 30 -31 c58 -62 -12 -59 1234
-59 1246 0 1176 -3 1234 59 l30 31 591 0 592 0 34 23 c19 12 44 42 57 67 19
38 22 60 22 163 0 131 -9 163 -60 212 l-30 29 0 1003 0 1003 -114 229 c-118
235 -145 274 -220 314 -39 21 -53 22 -363 25 l-323 3 0 57 0 56 -257 259
c-180 181 -271 265 -301 279 l-42 19 2 287 3 287 81 21 81 22 5 -132 c3 -89
10 -143 21 -168 37 -88 109 -147 161 -134 75 19 88 91 29 157 l-38 42 -3 140
-4 139 35 37 c61 62 72 123 36 197 -12 25 -35 53 -55 65 -41 25 -1162 329
-1209 328 -16 -1 -285 -70 -597 -154z m1145 -162 c301 -80 547 -149 547 -152
0 -3 -245 -72 -544 -153 l-545 -146 -545 147 c-300 81 -547 149 -550 151 -2 3
240 71 537 151 298 81 544 147 547 148 3 1 251 -65 553 -146z m-756 -570 l213
-56 232 61 c128 34 281 75 341 91 l107 29 0 -259 0 -259 -680 0 -680 0 0 259
0 259 128 -34 c70 -19 223 -60 339 -91z m1197 -733 l171 -170 -1169 0 -1168 0
44 53 c24 28 86 102 137 164 52 62 101 114 110 116 9 3 396 5 860 6 l845 1
170 -170z m296 -425 l0 -85 -1280 0 -1280 0 0 85 0 85 1280 0 1280 0 0 -85z
m-2730 -105 c0 -33 37 -97 70 -120 16 -12 46 -24 65 -27 l35 -6 0 -83 0 -84
-485 0 -485 0 74 148 c70 140 92 173 126 185 8 3 147 6 308 6 287 1 292 1 292
-19z m3530 -5 c12 -11 56 -86 96 -167 l74 -148 -485 0 -485 0 0 84 0 83 35 6
c19 3 49 15 65 27 33 24 70 87 70 120 0 21 2 21 304 18 288 -3 305 -4 326 -23z
m-970 -230 l0 -85 -1110 0 -1110 0 0 85 0 85 1110 0 1110 0 0 -85z m-2220
-1200 l0 -935 -595 0 -595 0 0 935 0 935 595 0 595 0 0 -935z m2050 0 l0 -935
-255 0 -255 0 0 515 c0 560 0 558 -55 583 -18 9 -126 12 -376 12 -380 0 -393
-2 -417 -55 -9 -19 -12 -163 -12 -540 l0 -515 -255 0 -255 0 0 935 0 935 940
0 940 0 0 -935z m1360 0 l0 -935 -595 0 -595 0 0 935 0 935 595 0 595 0 0
-935z m-2042 -467 l2 -468 -260 0 -260 0 0 463 c0 255 3 467 7 471 4 3 119 5
257 4 l251 -3 3 -467z m-1538 -723 l0 -85 -555 0 -555 0 0 85 0 85 555 0 555
0 0 -85z m2390 -45 l0 -130 -1110 0 -1110 0 0 130 0 130 1110 0 1110 0 0 -130z
m1280 45 l0 -85 -555 0 -555 0 0 85 0 85 555 0 555 0 0 -85z"/>
<path d="M543 2196 c-27 -23 -28 -29 -31 -126 -2 -55 -1 -112 2 -125 16 -64
96 -86 141 -40 24 23 25 30 25 142 -1 123 -5 139 -47 161 -33 18 -59 14 -90
-12z"/>
<path d="M1072 2210 c-39 -16 -54 -71 -50 -181 3 -87 6 -100 27 -123 30 -32
78 -34 115 -5 26 20 26 22 26 144 0 102 -3 126 -17 144 -21 25 -68 35 -101 21z"/>
<path d="M560 1697 c-39 -20 -50 -53 -50 -160 0 -136 17 -167 95 -167 24 0 39
7 54 26 19 24 21 40 21 144 0 108 -2 118 -22 138 -30 27 -67 35 -98 19z"/>
<path d="M1068 1694 c-38 -20 -51 -72 -47 -181 4 -80 7 -95 28 -117 32 -34 88
-36 119 -3 20 21 22 34 22 141 0 64 -4 126 -10 136 -5 10 -24 23 -41 29 -39
13 -38 14 -71 -5z"/>
<path d="M552 1183 c-28 -11 -42 -62 -42 -157 0 -112 9 -140 50 -161 35 -18
64 -13 98 18 20 19 22 29 22 137 0 104 -2 120 -21 144 -16 20 -29 26 -57 25
-20 0 -43 -3 -50 -6z"/>
<path d="M1049 1164 c-21 -22 -24 -37 -28 -117 -4 -113 9 -161 50 -183 25 -12
37 -13 65 -4 19 6 39 20 44 30 6 10 10 72 10 138 0 111 -1 120 -23 140 -33 31
-87 29 -118 -4z"/>
<path d="M2245 2275 c-24 -23 -25 -30 -25 -139 0 -106 2 -117 24 -142 33 -39
89 -39 123 0 24 28 24 34 21 148 -3 112 -5 121 -27 139 -33 27 -86 25 -116 -6z"/>
<path d="M2759 2281 c-22 -18 -24 -27 -27 -139 -3 -114 -3 -120 21 -148 34
-39 90 -39 123 0 22 25 24 36 24 142 0 109 -1 116 -25 139 -30 31 -83 33 -116
6z"/>
<path d="M3973 2210 c-36 -15 -43 -43 -43 -169 0 -117 1 -120 26 -140 37 -29
85 -27 115 5 21 23 24 36 27 123 4 113 -11 165 -53 181 -31 12 -43 12 -72 0z"/>
<path d="M4485 2208 c-40 -23 -44 -40 -45 -161 0 -112 1 -119 25 -142 45 -46
125 -24 141 40 3 13 4 70 2 125 -3 97 -4 103 -31 126 -30 26 -61 30 -92 12z"/>
<path d="M3974 1696 c-17 -8 -34 -21 -38 -31 -3 -9 -6 -69 -6 -134 0 -110 1
-119 23 -139 33 -31 87 -29 118 4 21 22 24 37 28 117 4 112 -9 161 -49 182
-35 18 -36 18 -76 1z"/>
<path d="M4500 1703 c-8 -3 -25 -15 -37 -26 -21 -19 -23 -29 -23 -137 0 -104
2 -120 21 -144 40 -51 128 -28 145 38 3 14 4 70 2 125 -2 84 -6 104 -23 120
-22 22 -62 33 -85 24z"/>
<path d="M3952 1167 c-20 -21 -22 -34 -22 -141 0 -64 4 -126 10 -136 5 -10 25
-24 44 -30 46 -15 89 7 105 51 13 39 15 188 2 222 -15 39 -40 57 -80 57 -26 0
-44 -7 -59 -23z"/>
<path d="M4461 1164 c-19 -24 -21 -40 -21 -144 0 -108 2 -118 23 -137 33 -31
62 -36 97 -18 41 21 50 49 50 161 0 133 -18 164 -95 164 -24 0 -39 -7 -54 -26z"/>
</g>
</svg>
